<?xml version="1.0" encoding="UTF-8" standalone="no"?><!DOCTYPE svg PUBLIC "-//W3C//DTD SVG 1.1//EN" "http://www.w3.org/Graphics/SVG/1.1/DTD/svg11.dtd"><svg width="100%" height="100%" viewBox="0 0 128 128" version="1.1" xmlns="http://www.w3.org/2000/svg" xmlns:xlink="http://www.w3.org/1999/xlink" xml:space="preserve" xmlns:serif="http://www.serif.com/" style="fill-rule:evenodd;clip-rule:evenodd;stroke-linejoin:round;stroke-miterlimit:2;"><path d="M107.012,63.86l0,0.026c-0.01,30.731 -19.479,55.385 -43.012,55.385c-23.532,0 -43.001,-24.654 -43.011,-55.385l0,-0.026c0.01,-30.731 19.479,-55.386 43.011,-55.386c23.533,0 43.002,24.655 43.012,55.386Zm-45.687,-49.795c-5.488,0.507 -10.631,2.56 -15.196,5.826l4.514,4.607c3.474,3.545 6.431,7.519 8.822,11.8c0.216,0.397 0.675,0.596 1.112,0.484c0.438,-0.112 0.745,-0.506 0.745,-0.958c0.003,-7.298 0.003,-21.758 0.003,-21.758Zm21.465,49.812c0,-7.626 2.851,-15.252 8.552,-21.07l4.822,-4.922c-0.89,-1.935 -1.876,-3.785 -2.95,-5.536l-4.854,4.954c-6.906,7.048 -10.785,16.607 -10.785,26.574l5.215,0l0,0Zm-16.036,0l-5.487,0c0,13.32 -5.185,26.094 -14.413,35.513l-4.895,4.995c1.328,1.273 2.722,2.435 4.174,3.473l4.508,-4.601c3.474,-3.546 6.431,-7.52 8.822,-11.801c0.217,-0.397 0.675,-0.596 1.113,-0.484c0.437,0.112 0.744,0.506 0.744,0.958c0.003,7.296 0.003,21.75 0.003,21.75c0.883,0.082 1.775,0.123 2.676,0.123c0.902,0 1.796,-0.042 2.682,-0.123l0,-21.777c0,-0.453 0.308,-0.849 0.747,-0.961c0.44,-0.112 0.899,0.088 1.116,0.486c2.391,4.293 5.353,8.276 8.835,11.829l4.5,4.592c1.452,-1.039 2.846,-2.2 4.173,-3.474l-4.884,-4.985c-9.229,-9.419 -14.413,-22.193 -14.413,-35.513l-0.001,-0Zm-5.487,0c0,-13.32 -5.185,-26.095 -14.413,-35.513l-4.9,-5c-1.417,1.359 -2.76,2.846 -4.017,4.447l5.513,5.626c7.91,8.073 12.354,19.023 12.354,30.441l5.463,0Zm26.88,0l-5.357,0c0,7.626 2.851,15.252 8.552,21.07l4.819,4.919c0.812,-1.765 1.543,-3.602 2.187,-5.501l-3.218,-3.284c-4.655,-4.751 -6.983,-10.977 -6.983,-17.204Zm5.112,0c0,-4.321 1.682,-8.465 4.676,-11.52l2.257,-2.303c-0.497,-2.293 -1.114,-4.519 -1.842,-6.667l-3.22,3.286c-4.655,4.751 -6.983,10.977 -6.983,17.204l5.112,0Zm-42.813,0c0,-9.967 -3.88,-19.526 -10.785,-26.574l-4.867,-4.968c-1.075,1.751 -2.062,3.6 -2.951,5.535l4.837,4.937c5.701,5.818 8.552,13.444 8.552,21.07l5.215,0l0,-0Zm5.357,0l-5.357,0c0,9.967 -3.88,19.526 -10.785,26.574l-4.865,4.964c0.977,1.592 2.028,3.103 3.144,4.524l5.509,-5.622c7.91,-8.073 12.354,-19.023 12.354,-30.441Zm16.413,0c0,-11.417 4.443,-22.367 12.354,-30.441l5.5,-5.613c-1.257,-1.602 -2.598,-3.089 -4.016,-4.448l-4.888,4.989c-9.228,9.419 -14.413,22.193 -14.413,35.513l5.463,0Zm-26.986,0l-5.357,-0c0,6.227 -2.328,12.453 -6.983,17.204l-3.234,3.301c0.645,1.898 1.376,3.735 2.188,5.5l4.834,-4.934c5.701,-5.818 8.552,-13.444 8.552,-21.07l0,0Zm-15.828,-0c0,-2.654 -0.955,-5.208 -2.671,-7.182c-0.254,2.341 -0.386,4.733 -0.388,7.163l0,0.019l3.059,0Zm10.47,0c0,-6.227 -2.328,-12.453 -6.983,-17.204l-3.236,-3.303c-0.729,2.147 -1.347,4.373 -1.844,6.665l2.275,2.322c2.994,3.055 4.676,7.199 4.676,11.52l5.112,0Zm-5.112,0l-5.358,0c0,2.654 -0.954,5.207 -2.67,7.181c0.247,2.271 0.61,4.494 1.08,6.659l2.273,-2.32c2.994,-3.055 4.676,-7.199 4.676,-11.52Zm63.855,0l3.044,0l0.003,-0.004l-0.01,-0.011c-0.001,-2.424 -0.132,-4.81 -0.385,-7.145c-1.704,1.971 -2.652,4.516 -2.652,7.16Zm-21.042,-0l-5.357,0c0,11.417 4.444,22.367 12.354,30.441l5.497,5.61c1.115,-1.422 2.166,-2.933 3.142,-4.526l-4.851,-4.951c-6.906,-7.048 -10.785,-16.607 -10.785,-26.574Zm21.042,0l-5.357,0c0,4.321 1.682,8.465 4.676,11.52l2.255,2.302c0.469,-2.166 0.832,-4.39 1.078,-6.663c-1.703,-1.971 -2.651,-4.515 -2.651,-7.159Zm-16.733,-43.977c-4.566,-3.27 -9.712,-5.326 -15.202,-5.834l0,21.785c0,0.453 0.308,0.849 0.747,0.961c0.44,0.112 0.899,-0.088 1.116,-0.486c2.391,-4.293 5.353,-8.276 8.835,-11.829l4.505,-4.598l-0.001,-0Z" style="fill:#355c35;"/></svg>