<svg width="359" height="216" viewBox="0 0 359 216" fill="none" xmlns="http://www.w3.org/2000/svg">
<path d="M23.2698 176.756V178.936H7.15637V176.756H10.4264C10.9004 176.756 11.2795 176.614 11.5639 176.282C11.8482 175.95 11.9904 175.476 11.9904 174.765V147.889H10.3317C8.76772 147.889 7.48812 147.983 6.54027 148.173C5.59243 148.363 4.83415 148.789 4.31283 149.405C3.79151 150.022 3.41237 150.922 3.12802 152.155C2.89106 153.387 2.6541 155.046 2.41713 157.132H0.00012207V145.708H30.2365V157.132H27.8195C27.6299 155.046 27.3929 153.387 27.156 152.155C26.8716 150.922 26.4925 150.022 25.9712 149.405C25.4498 148.789 24.6916 148.363 23.7437 148.173C22.7959 147.983 21.5163 147.889 19.9523 147.889H18.2936V174.765C18.2936 175.476 18.4358 175.95 18.7201 176.282C19.0045 176.614 19.3836 176.756 19.8575 176.756H23.1276H23.2698Z" fill="#355C35"/>
<path d="M33.9966 147.936V145.756H49.9678C54.6597 145.756 58.1667 146.514 60.4416 148.078C62.7164 149.642 63.8538 151.823 63.8538 154.714C63.8538 156.563 63.2851 158.222 62.1003 159.597C60.9155 160.971 59.1146 162.014 56.6028 162.725C58.688 163.199 60.3468 164.052 61.4842 165.237C62.6216 166.47 63.1903 168.034 63.1903 169.93V173.58C63.1903 174.67 63.3325 175.429 63.5695 175.808C63.8064 176.234 64.1856 176.424 64.6595 176.424C65.1334 176.424 65.4652 176.234 65.7495 175.903C65.9865 175.571 66.1287 175.002 66.1287 174.196V171.4H68.4509V174.244C68.4509 175.855 68.0243 177.135 67.1239 178.036C66.2234 178.936 64.8017 179.363 62.8112 179.363C60.9629 179.363 59.5411 178.936 58.4511 178.036C57.3611 177.182 56.8397 175.618 56.8397 173.438V170.499C56.8397 167.987 56.2236 166.28 55.0388 165.237C53.854 164.242 51.8635 163.721 49.1148 163.721H44.5177V174.718C44.5177 175.429 44.6599 175.903 44.9443 176.234C45.2286 176.566 45.6077 176.708 46.0817 176.708H48.4039V178.889H33.9492V176.708H36.5084C36.9823 176.708 37.3615 176.566 37.6458 176.234C37.9302 175.903 38.0724 175.429 38.0724 174.718V149.832C38.0724 149.121 37.9302 148.647 37.6458 148.315C37.3615 147.983 36.9823 147.841 36.5084 147.841H33.9492L33.9966 147.936ZM47.9774 147.936H44.5177V161.588H48.2143C50.5366 161.588 52.3849 161.303 53.7118 160.782C55.0388 160.26 55.9867 159.502 56.5554 158.459C57.1241 157.464 57.4085 156.279 57.4085 154.857C57.4085 153.387 57.1241 152.107 56.5554 151.112C55.9867 150.069 55.0388 149.263 53.6645 148.742C52.2901 148.173 50.3944 147.936 47.9774 147.936Z" fill="#355C35"/>
<path d="M82.2201 160.592H86.6749C87.9071 160.592 88.8076 160.355 89.4237 159.881C90.0398 159.407 90.3715 158.554 90.3715 157.321V155.71H92.599V167.607H90.3715V165.996C90.3715 164.763 90.0398 163.91 89.4237 163.436C88.8076 162.962 87.8597 162.725 86.6749 162.725H82.2201V174.575C82.2201 175.097 82.3148 175.523 82.5044 175.855C82.694 176.187 83.0731 176.424 83.6418 176.566C84.2105 176.708 85.0162 176.803 86.1062 176.803H88.9498C90.7507 176.803 92.1725 176.708 93.3099 176.471C94.3999 176.234 95.253 175.808 95.8691 175.144C96.4852 174.481 96.9591 173.58 97.2434 172.348C97.5752 171.115 97.8122 169.551 97.9543 167.56H100.371V178.984H71.6516V176.803H74.2107C74.6847 176.803 75.0638 176.661 75.3482 176.329C75.6325 175.997 75.7747 175.523 75.7747 174.812V149.927C75.7747 149.216 75.6325 148.742 75.3482 148.41C75.0638 148.078 74.6847 147.936 74.2107 147.936H71.6516V145.756H100.371V156.753H97.9543C97.7648 154.762 97.5278 153.198 97.2434 152.012C96.9117 150.827 96.4852 149.974 95.8691 149.358C95.253 148.789 94.3999 148.363 93.3099 148.22C92.2198 148.031 90.7507 147.936 88.9498 147.936H82.2201V160.592Z" fill="#355C35"/>
<path d="M135.007 169.503C135.007 171.637 134.438 173.39 133.348 174.907C132.211 176.377 130.741 177.514 128.846 178.273C126.95 179.031 124.912 179.41 122.637 179.41C120.031 179.41 117.708 178.936 115.671 177.941C113.633 176.993 111.832 175.666 110.41 174.054L109.984 178.936H107.424V167.797H110.078C110.552 169.598 111.358 171.21 112.495 172.632C113.633 174.054 115.054 175.144 116.713 175.903C118.372 176.708 120.173 177.088 122.116 177.088C123.443 177.088 124.628 176.898 125.67 176.519C126.713 176.14 127.519 175.523 128.087 174.765C128.656 174.007 128.988 173.011 128.988 171.779C128.988 170.546 128.656 169.503 127.945 168.698C127.282 167.844 126.239 167.133 124.865 166.517C123.49 165.901 121.737 165.332 119.557 164.811C117.898 164.337 116.334 163.863 114.912 163.294C113.491 162.725 112.258 162.062 111.216 161.303C110.173 160.545 109.32 159.597 108.751 158.506C108.135 157.416 107.851 156.136 107.851 154.667C107.851 152.724 108.372 151.064 109.367 149.642C110.41 148.268 111.784 147.178 113.538 146.419C115.291 145.661 117.282 145.282 119.462 145.282C121.737 145.282 123.775 145.708 125.623 146.561C127.424 147.415 128.988 148.647 130.267 150.259L130.694 145.756H133.253V156.468H130.552C129.888 153.577 128.609 151.396 126.618 149.879C124.675 148.363 122.4 147.604 119.794 147.604C118.656 147.604 117.566 147.794 116.618 148.126C115.671 148.505 114.912 149.026 114.391 149.785C113.822 150.543 113.585 151.491 113.585 152.676C113.585 153.719 113.917 154.62 114.533 155.378C115.149 156.136 116.097 156.753 117.377 157.274C118.656 157.795 120.22 158.364 122.116 158.886C124.059 159.407 125.813 159.928 127.377 160.545C128.988 161.161 130.315 161.825 131.5 162.63C132.637 163.436 133.538 164.384 134.154 165.474C134.77 166.565 135.101 167.939 135.101 169.503H135.007Z" fill="#355C35"/>
<path d="M178.764 178.936L178.053 175.049C176.868 176.519 175.446 177.609 173.693 178.32C171.987 179.031 169.996 179.41 167.816 179.41C164.499 179.41 161.561 178.699 159.049 177.277C156.49 175.855 154.499 173.864 153.077 171.305C151.655 168.745 150.897 165.759 150.897 162.346C150.897 158.886 151.608 155.899 153.077 153.387C154.546 150.827 156.537 148.837 159.049 147.415C161.561 145.993 164.451 145.282 167.722 145.282C169.996 145.282 172.082 145.708 174.025 146.514C175.968 147.32 177.579 148.6 178.859 150.353L179.19 145.803H181.75V157.179H179.048C178.622 155.236 177.911 153.529 176.916 152.107C175.92 150.685 174.688 149.595 173.219 148.837C171.75 148.078 170.091 147.699 168.243 147.699C166.015 147.699 164.12 148.268 162.603 149.358C161.039 150.448 159.854 152.107 159.049 154.24C158.243 156.421 157.864 159.075 157.864 162.299C157.864 165.474 158.29 168.176 159.096 170.357C159.949 172.537 161.134 174.196 162.698 175.334C164.262 176.471 166.11 177.04 168.195 177.04C170.992 177.04 173.172 176.329 174.688 174.955C176.205 173.58 176.963 171.494 176.963 168.792V166.517C176.963 165.806 176.821 165.332 176.537 165C176.252 164.669 175.873 164.526 175.399 164.526H170.186V162.346H185.683V164.526H183.977C183.503 164.526 183.124 164.669 182.84 165C182.555 165.332 182.413 165.806 182.413 166.517V178.936H179.001H178.764Z" fill="#355C35"/>
<path d="M190.123 174.291L200.36 145.756H206.615L216.757 174.101C217.089 175.002 217.373 175.713 217.705 176.14C218.037 176.566 218.511 176.803 219.174 176.803H221.117V178.984H206.236V176.803H208.701C209.364 176.803 209.838 176.614 210.028 176.234C210.265 175.855 210.265 175.286 209.98 174.481L207.753 168.129V168.271H195.241L193.061 174.623C192.777 175.523 192.729 176.092 192.966 176.377C193.156 176.661 193.583 176.803 194.151 176.803H196.616V178.984H185.858V176.803H187.848C188.417 176.803 188.843 176.614 189.175 176.234C189.507 175.855 189.791 175.192 190.123 174.291ZM195.952 166.043H207.089L201.497 149.832L195.952 166.043Z" fill="#355C35"/>
<path d="M223.916 147.936V145.756H239.888C244.58 145.756 248.087 146.514 250.361 148.078C252.636 149.642 253.774 151.823 253.774 154.714C253.774 156.563 253.205 158.222 252.02 159.597C250.835 160.971 249.034 162.014 246.523 162.725C248.608 163.199 250.267 164.052 251.404 165.237C252.541 166.47 253.11 168.034 253.11 169.93V173.58C253.11 174.67 253.252 175.429 253.489 175.808C253.726 176.234 254.105 176.424 254.579 176.424C255.053 176.424 255.385 176.234 255.669 175.903C255.906 175.571 256.049 175.002 256.049 174.196V171.4H258.371V174.244C258.371 175.855 257.944 177.135 257.044 178.036C256.143 178.936 254.722 179.363 252.731 179.363C250.883 179.363 249.461 178.936 248.371 178.036C247.281 177.182 246.76 175.618 246.76 173.438V170.499C246.76 167.987 246.144 166.28 244.959 165.237C243.774 164.242 241.783 163.721 239.035 163.721H234.438V174.718C234.438 175.429 234.58 175.903 234.864 176.234C235.148 176.566 235.528 176.708 236.002 176.708H238.324V178.889H223.869V176.708H226.428C226.902 176.708 227.281 176.566 227.566 176.234C227.85 175.903 227.992 175.429 227.992 174.718V149.832C227.992 149.121 227.85 148.647 227.566 148.315C227.281 147.983 226.902 147.841 226.428 147.841H223.869L223.916 147.936ZM237.897 147.936H234.438V161.588H238.134C240.456 161.588 242.305 161.303 243.632 160.782C244.959 160.26 245.907 159.502 246.475 158.459C247.044 157.464 247.328 156.279 247.328 154.857C247.328 153.387 247.044 152.107 246.475 151.112C245.907 150.069 244.959 149.263 243.584 148.742C242.21 148.173 240.314 147.936 237.897 147.936Z" fill="#355C35"/>
<path d="M264.984 157.179H262.567V145.756H289.817V147.936L269.249 176.756H278.49C280.291 176.756 281.761 176.661 282.898 176.424C284.035 176.234 284.888 175.76 285.552 175.144C286.168 174.481 286.642 173.533 286.974 172.205C287.305 170.926 287.542 169.172 287.779 167.039H290.196V178.936H261.714V176.756L282.282 147.936H274.225C272.424 147.936 270.955 148.031 269.818 148.22C268.68 148.41 267.827 148.837 267.164 149.453C266.548 150.069 266.074 151.017 265.742 152.202C265.41 153.435 265.173 155.094 264.984 157.179Z" fill="#355C35"/>
<path d="M297.206 174.291L307.442 145.756H313.698L323.84 174.101C324.172 175.002 324.456 175.713 324.788 176.14C325.12 176.566 325.594 176.803 326.257 176.803H328.2V178.984H313.319V176.803H315.784C316.447 176.803 316.921 176.614 317.11 176.234C317.347 175.855 317.347 175.286 317.063 174.481L314.836 168.129V168.271H302.324L300.144 174.623C299.86 175.523 299.812 176.092 300.049 176.377C300.239 176.661 300.665 176.803 301.234 176.803H303.698V178.984H292.94V176.803H294.931C295.5 176.803 295.926 176.614 296.258 176.234C296.59 175.855 296.874 175.192 297.206 174.291ZM303.035 166.043H314.172L308.58 149.832L303.035 166.043Z" fill="#355C35"/>
<path d="M358.013 169.503C358.013 171.637 357.444 173.39 356.354 174.907C355.217 176.377 353.748 177.514 351.852 178.273C349.956 179.031 347.918 179.41 345.643 179.41C343.037 179.41 340.715 178.936 338.677 177.941C336.639 176.993 334.838 175.666 333.416 174.054L332.99 178.936H330.431V167.797H333.085C333.558 169.598 334.364 171.21 335.502 172.632C336.639 174.054 338.061 175.144 339.719 175.903C341.378 176.708 343.179 177.088 345.122 177.088C346.449 177.088 347.634 176.898 348.677 176.519C349.719 176.14 350.525 175.523 351.094 174.765C351.662 174.007 351.994 173.011 351.994 171.779C351.994 170.546 351.662 169.503 350.951 168.698C350.288 167.844 349.245 167.133 347.871 166.517C346.497 165.901 344.743 165.332 342.563 164.811C340.904 164.337 339.34 163.863 337.919 163.294C336.497 162.725 335.265 162.062 334.222 161.303C333.179 160.545 332.326 159.597 331.758 158.506C331.141 157.416 330.857 156.136 330.857 154.667C330.857 152.724 331.378 151.064 332.374 149.642C333.416 148.268 334.791 147.178 336.544 146.419C338.298 145.661 340.288 145.282 342.468 145.282C344.743 145.282 346.781 145.708 348.629 146.561C350.43 147.415 351.994 148.647 353.274 150.259L353.7 145.756H356.259V156.468H353.558C352.895 153.577 351.615 151.396 349.624 149.879C347.681 148.363 345.407 147.604 342.8 147.604C341.663 147.604 340.573 147.794 339.625 148.126C338.677 148.505 337.919 149.026 337.397 149.785C336.829 150.543 336.592 151.491 336.592 152.676C336.592 153.719 336.923 154.62 337.539 155.378C338.156 156.136 339.103 156.753 340.383 157.274C341.663 157.795 343.226 158.364 345.122 158.886C347.065 159.407 348.819 159.928 350.383 160.545C351.994 161.161 353.321 161.825 354.506 162.63C355.643 163.436 356.544 164.384 357.16 165.474C357.776 166.565 358.108 167.939 358.108 169.503H358.013Z" fill="#355C35"/>
<path d="M142.1 215.394H144.46L149.458 199.077H147.144L143.28 212.755L139.439 199.077H137.101L142.1 215.394Z" fill="#355C35"/>
<path d="M163.343 200.975V199.077H151.911V200.975H156.586V213.496H151.911V215.394H163.343V213.496H158.691V200.975H163.343Z" fill="#355C35"/>
<path d="M170.794 215.394H173.154L178.153 199.077H175.838L171.974 212.755L168.133 199.077H165.796L170.794 215.394Z" fill="#355C35"/>
<path d="M181.299 215.394H191.99V213.496H183.405V208.173H191.527V206.298H183.405V200.975H191.99V199.077H181.299V215.394Z" fill="#355C35"/>
<path d="M195.577 215.394H197.683V208.659H201.547C203.19 208.659 204.162 209.006 204.162 210.695V215.394H206.268V210.556C206.268 208.936 205.319 207.663 203.167 207.663C205.065 207.247 206.661 205.858 206.661 203.59C206.661 200.905 204.787 199.077 201.131 199.077H195.577V215.394ZM197.683 206.784V200.975H201.131C203.028 200.975 204.371 202.016 204.371 203.706C204.371 205.789 203.005 206.784 201.2 206.784H197.683Z" fill="#355C35"/>
<path d="M215.015 215.718C219.134 215.718 221.031 212.2 221.031 207.224C221.031 202.294 219.134 198.706 215.015 198.706C210.896 198.706 208.999 202.363 208.999 207.224C208.999 212.107 210.896 215.718 215.015 215.718ZM215.015 213.82C212.123 213.82 211.22 210.996 211.22 207.224C211.22 203.474 212.123 200.604 215.015 200.604C217.908 200.604 218.833 203.428 218.833 207.224C218.833 211.066 217.908 213.82 215.015 213.82Z" fill="#355C35"/>
<path fill-rule="evenodd" clip-rule="evenodd" d="M228.658 63.8582V63.888C228.646 99.3202 206.199 127.746 179.066 127.746C151.934 127.746 129.487 99.3202 129.475 63.888V63.8582C129.487 28.426 151.934 0 179.066 0C206.199 0 228.646 28.426 228.658 63.8582ZM175.982 6.44615C169.655 7.03034 163.725 9.39762 158.461 13.1628L163.665 18.4742C167.67 22.5619 171.08 27.1439 173.837 32.0797C174.086 32.5371 174.615 32.7668 175.119 32.6378C175.624 32.5088 175.978 32.0539 175.978 31.5327C175.982 23.1185 175.982 6.44615 175.982 6.44615ZM200.731 63.878C200.731 55.0855 204.018 46.293 210.591 39.5846L216.151 33.9102C215.125 31.6789 213.988 29.5464 212.75 27.5269L207.153 33.2384C199.191 41.3645 194.718 52.3858 194.718 63.8778H200.731L200.731 63.878ZM182.242 63.878H175.916C175.916 79.2356 169.938 93.9642 159.298 104.824L153.654 110.583C155.185 112.051 156.792 113.39 158.467 114.587L163.665 109.282C167.671 105.194 171.08 100.612 173.837 95.6761C174.087 95.2188 174.615 94.989 175.12 95.118C175.624 95.2471 175.978 95.7019 175.978 96.2231C175.982 104.635 175.982 121.3 175.982 121.3C177 121.394 178.029 121.442 179.067 121.442C180.107 121.442 181.138 121.394 182.159 121.3V96.1914C182.159 95.6687 182.514 95.2128 183.02 95.0836C183.527 94.9545 184.056 95.1849 184.307 95.6434C187.064 100.593 190.479 105.185 194.493 109.282L199.681 114.577C201.355 113.379 202.962 112.04 204.492 110.571L198.861 104.824C188.22 93.9644 182.243 79.2357 182.243 63.8781L182.242 63.878ZM175.916 63.878C175.916 48.5203 169.938 33.7916 159.298 22.9321L153.649 17.1674C152.015 18.7345 150.467 20.4486 149.017 22.2945L155.373 28.7807C164.493 38.0891 169.617 50.714 169.617 63.878H175.916ZM206.908 63.878H200.731C200.731 72.6704 204.018 81.4629 210.591 88.1714L216.147 93.8425C217.083 91.8072 217.926 89.6894 218.669 87.5002L214.959 83.7135C209.592 78.2361 206.908 71.057 206.908 63.878ZM212.802 63.878C212.802 58.8961 214.741 54.1185 218.193 50.5957L220.795 47.9399C220.222 45.2964 219.511 42.7291 218.671 40.2533L214.959 44.0424C209.592 49.5198 206.908 56.6989 206.908 63.878H212.802ZM163.44 63.878C163.44 52.3859 158.967 41.3646 151.005 33.2386L145.393 27.5112C144.154 29.5302 143.016 31.6621 141.99 33.8929L147.567 39.5847C154.14 46.2931 157.427 55.0856 157.427 63.8781H163.44L163.44 63.878ZM169.617 63.878H163.44C163.44 75.37 158.967 86.3913 151.005 94.5173L145.396 100.241C146.523 102.077 147.734 103.819 149.021 105.457L155.373 98.9753C164.493 89.667 169.617 77.0419 169.617 63.878ZM188.541 63.878C188.541 50.714 193.664 38.0891 202.785 28.7807L209.126 22.3087C207.677 20.4622 206.13 18.7476 204.496 17.1799L198.86 22.9321C188.22 33.7916 182.242 48.5203 182.242 63.878H188.541ZM157.427 63.8781L151.25 63.878C151.25 71.057 148.566 78.236 143.199 83.7135L139.47 87.5193C140.214 89.7081 141.057 91.8253 141.993 93.8601L147.567 88.1714C154.14 81.4629 157.427 72.6704 157.427 63.878L157.427 63.8781ZM139.178 63.878C139.178 60.8177 138.077 57.8733 136.098 55.5968C135.805 58.2962 135.653 61.0538 135.651 63.8558C135.651 63.8559 135.651 63.8597 135.651 63.8604V63.878H139.178ZM151.25 63.878C151.25 56.6989 148.566 49.5199 143.199 44.0424L139.468 40.2342C138.628 42.7092 137.915 45.2759 137.342 47.9188L139.965 50.5957C143.417 54.1183 145.356 58.8961 145.356 63.878H151.25ZM145.356 63.878H139.178C139.178 66.9378 138.078 69.8817 136.099 72.158C136.384 74.7763 136.802 77.3399 137.344 79.8353L139.965 77.1602C143.417 73.6376 145.356 68.8598 145.356 63.878ZM218.979 63.878H222.489L222.493 63.8731L222.481 63.8604C222.48 61.0658 222.329 58.3151 222.037 55.6226C220.072 57.8955 218.979 60.8292 218.979 63.878ZM194.718 63.8778L188.541 63.878C188.541 77.0419 193.665 89.6668 202.785 98.9752L209.123 105.443C210.409 103.804 211.62 102.061 212.746 100.225L207.153 94.5172C199.191 86.3911 194.718 75.3698 194.718 63.8778ZM218.979 63.878H212.802C212.802 68.8598 214.741 73.6374 218.193 77.1602L220.793 79.8143C221.334 77.3173 221.752 74.7522 222.036 72.1322C220.072 69.8595 218.979 66.9263 218.979 63.878ZM199.686 13.1734C194.421 9.40354 188.488 7.03262 182.159 6.44691C182.159 6.44691 182.159 23.1397 182.159 31.5648C182.159 32.0875 182.514 32.5434 183.02 32.6726C183.527 32.8018 184.056 32.5714 184.307 32.1128C187.064 27.1635 190.479 22.5707 194.493 18.4744L199.687 13.1735L199.686 13.1734Z" fill="#355C35"/>
<path fill-rule="evenodd" clip-rule="evenodd" d="M224.502 3.13254C225.239 3.13254 225.911 3.31499 226.52 3.67971C227.129 4.04443 227.609 4.54408 227.959 5.17881C228.309 5.8134 228.484 6.51371 228.484 7.27973C228.484 8.04575 228.309 8.74604 227.959 9.38062C227.609 10.0152 227.129 10.515 226.52 10.8797C225.911 11.2445 225.239 11.4269 224.502 11.4269C223.765 11.4269 223.094 11.2445 222.489 10.8797C221.884 10.515 221.406 10.0154 221.056 9.38062C220.706 8.74604 220.531 8.04575 220.531 7.27973C220.531 6.51371 220.706 5.8134 221.056 5.17881C221.406 4.54423 221.884 4.04443 222.489 3.67971C223.094 3.31499 223.765 3.13254 224.502 3.13254ZM224.502 10.4857C225.056 10.4857 225.559 10.3453 226.012 10.0644C226.464 9.78359 226.819 9.39869 227.078 8.90997C227.337 8.42124 227.467 7.87772 227.467 7.27956C227.467 6.68141 227.337 6.1379 227.078 5.64917C226.819 5.16045 226.464 4.7757 226.012 4.49476C225.559 4.21397 225.056 4.07342 224.502 4.07342C223.955 4.07342 223.455 4.21382 223.003 4.49476C222.551 4.77555 222.195 5.16045 221.936 5.64917C221.678 6.1379 221.548 6.68141 221.548 7.27956C221.548 7.87772 221.678 8.42124 221.936 8.90997C222.195 9.39869 222.551 9.78344 223.003 10.0644C223.455 10.3452 223.955 10.4857 224.502 10.4857ZM226.263 6.36056C226.263 6.64499 226.199 6.90043 226.072 7.12658C225.944 7.35273 225.764 7.52772 225.53 7.65172L226.132 8.9977C226.168 9.0707 226.187 9.15448 226.187 9.24934C226.187 9.33691 226.163 9.41524 226.115 9.4846C226.068 9.55396 226.008 9.60314 225.935 9.63228C225.884 9.65414 225.825 9.66506 225.76 9.66506C225.665 9.66506 225.574 9.63591 225.486 9.57748C225.399 9.5192 225.33 9.43162 225.278 9.31491L224.655 7.87059H223.944V9.17269C223.944 9.31126 223.898 9.42798 223.807 9.52284C223.716 9.6177 223.601 9.66506 223.462 9.66506C223.331 9.66506 223.22 9.6177 223.129 9.52284C223.038 9.42798 222.992 9.31126 222.992 9.17269V5.34289C222.992 5.20432 223.038 5.09123 223.129 5.00365C223.22 4.91608 223.324 4.87237 223.441 4.87237H224.6C225.074 4.87237 225.47 5.00914 225.787 5.28279C226.105 5.55629 226.263 5.91555 226.263 6.36056ZM223.944 7.01714H224.655C224.845 7.01714 224.998 6.95886 225.115 6.84214C225.231 6.72543 225.29 6.565 225.29 6.36071C225.29 6.15641 225.224 5.99416 225.093 5.8738C224.961 5.75344 224.797 5.69319 224.6 5.69319H223.944L223.944 7.01714Z" fill="#355C35"/>
</svg>
