<svg width="163" height="210" viewBox="0 0 163 210" fill="none" xmlns="http://www.w3.org/2000/svg">
<path fill-rule="evenodd" clip-rule="evenodd" d="M162.85 104.849V104.898C162.83 163.074 125.974 209.746 81.4248 209.746C36.8759 209.746 0.0196835 163.074 0 104.898V104.849C0.0196835 46.6726 36.8759 0 81.4248 0C125.974 0 162.83 46.6726 162.85 104.849ZM76.3597 10.5839C65.9723 11.5431 56.2357 15.4299 47.5929 21.6119L56.1378 30.3328C62.7138 37.0444 68.3119 44.5676 72.8378 52.6717C73.2482 53.4225 74.1153 53.7998 74.9442 53.588C75.7732 53.3762 76.3532 52.6293 76.3532 51.7735C76.3597 37.9582 76.3597 10.5839 76.3597 10.5839ZM116.996 104.881C116.996 90.4447 122.392 76.0084 133.184 64.9938L142.313 55.677C140.629 52.0135 138.763 48.5122 136.729 45.1963L127.54 54.5741C114.467 67.9162 107.123 86.0121 107.123 104.881H116.996L116.996 104.881ZM86.6392 104.881H76.2516C76.2516 130.097 66.4368 154.28 48.9663 172.11L39.7001 181.567C42.2139 183.977 44.8527 186.175 47.6021 188.141L56.138 179.429C62.7141 172.718 68.3122 165.195 72.8381 157.09C73.2485 156.34 74.1155 155.962 74.9445 156.174C75.7734 156.386 76.3535 157.133 76.3535 157.989C76.3599 171.8 76.36 199.163 76.36 199.163C78.0321 199.317 79.7211 199.395 81.4251 199.395C83.1333 199.395 84.8263 199.316 86.5022 199.161V157.936C86.5029 157.078 87.0852 156.33 87.9166 156.118C88.7481 155.906 89.6176 156.284 90.0292 157.037C94.5554 165.163 100.163 172.704 106.753 179.43L115.272 188.124C118.02 186.157 120.658 183.958 123.171 181.547L113.925 172.11C96.4545 154.28 86.6397 130.097 86.6397 104.881L86.6392 104.881ZM76.2516 104.881C76.2516 79.6654 66.4368 55.4824 48.9663 37.6522L39.6921 28.1872C37.0089 30.7602 34.4683 33.5744 32.0871 36.6052L42.5218 47.255C57.497 62.5384 65.9098 83.2671 65.9098 104.881H76.2516ZM127.138 104.881H116.996C116.996 119.317 122.392 133.754 133.184 144.768L142.308 154.08C143.844 150.738 145.229 147.261 146.448 143.666L140.356 137.449C131.544 128.456 127.138 116.668 127.138 104.881ZM136.815 104.881C136.815 96.7015 139.999 88.857 145.666 83.073L149.939 78.7124C148.999 74.3721 147.831 70.1568 146.452 66.0918L140.356 72.3131C131.544 81.3064 127.138 93.0937 127.138 104.881H136.815ZM55.7675 104.881C55.7675 86.0124 48.4231 67.9165 35.35 54.5743L26.1359 45.1706C24.1015 48.4855 22.2339 51.9859 20.5493 55.6487L29.7061 64.994C40.4984 76.0086 45.8946 90.445 45.8946 104.881H55.7673L55.7675 104.881ZM65.9098 104.881H55.7675C55.7675 123.75 48.4231 141.846 35.35 155.188L26.1419 164.586C27.9919 167.599 29.98 170.46 32.0938 173.15L42.5218 162.507C57.497 147.224 65.9098 126.495 65.9098 104.881ZM96.9805 104.881C96.9805 83.2671 105.393 62.5384 120.368 47.255L130.78 36.6287C128.4 33.5969 125.86 30.7816 123.178 28.2076L113.924 37.6522C96.4538 55.4824 86.6392 79.6654 86.6392 104.881H96.9805ZM45.8946 104.881L35.7525 104.881C35.7525 116.668 31.3466 128.455 22.5346 137.449L16.4121 143.698C17.6324 147.292 19.0175 150.768 20.5546 154.109L29.7064 144.768C40.4986 133.754 45.8949 119.317 45.8949 104.881L45.8946 104.881ZM15.9327 104.881C15.9327 99.8564 14.1243 95.0221 10.8755 91.2843C10.3937 95.7163 10.1437 100.244 10.1418 104.845C10.1418 104.845 10.1418 104.851 10.1418 104.852V104.881H15.9327ZM35.7525 104.881C35.7525 93.0937 31.3466 81.3067 22.5346 72.3131L16.4081 66.0604C15.0285 70.1241 13.8591 74.3384 12.9178 78.6778L17.2243 83.073C22.8914 88.8568 26.0751 96.7015 26.0751 104.881H35.7525ZM26.0751 104.881H15.9327C15.9327 109.905 14.1253 114.739 10.8772 118.476C11.3452 122.775 12.0311 126.984 12.9206 131.081L17.2243 126.689C22.8914 120.905 26.0751 113.061 26.0751 104.881ZM146.958 104.881H152.72L152.728 104.873L152.707 104.852C152.706 100.264 152.457 95.7475 151.978 91.3266C148.752 95.0585 146.958 99.8753 146.958 104.881ZM107.123 104.881L96.9805 104.881C96.9805 126.495 105.394 147.224 120.369 162.507L130.774 173.126C132.887 170.435 134.874 167.574 136.723 164.559L127.54 155.188C114.467 141.845 107.123 123.75 107.123 104.881ZM146.958 104.881H136.815C136.815 113.061 139.999 120.905 145.666 126.689L149.936 131.047C150.825 126.947 151.51 122.736 151.976 118.434C148.752 114.702 146.958 109.886 146.958 104.881ZM115.281 21.6294C106.635 15.4396 96.8945 11.5468 86.5019 10.5852C86.5019 10.5852 86.5019 37.9931 86.5019 51.8261C86.5027 52.6844 87.0849 53.433 87.9164 53.6451C88.7478 53.8571 89.6174 53.4788 90.029 52.726C94.5552 44.5997 100.163 37.0588 106.753 30.3331L115.281 21.6296L115.281 21.6294Z" fill="#355C35"/>
</svg>
