<svg width="359" height="35" viewBox="0 0 359 35" fill="none" xmlns="http://www.w3.org/2000/svg">
<path d="M23.2698 31.4745V33.6549H7.15635V31.4745H10.4264C10.9004 31.4745 11.2795 31.3323 11.5638 31.0004C11.8482 30.6686 11.9904 30.1946 11.9904 29.4836V2.60721H10.3316C8.76769 2.60721 7.4881 2.70201 6.54025 2.89161C5.5924 3.08122 4.83412 3.50782 4.31281 4.12404C3.79149 4.74025 3.41235 5.64087 3.128 6.8733C2.89104 8.10573 2.65407 9.76477 2.41711 11.8504H9.91821e-05V0.426758H30.2364V11.8504H27.8194C27.6299 9.76477 27.3929 8.10573 27.1559 6.8733C26.8716 5.64087 26.4924 4.74025 25.9711 4.12404C25.4498 3.50782 24.6915 3.08122 23.7437 2.89161C22.7958 2.70201 21.5162 2.60721 19.9523 2.60721H18.2936V29.4836C18.2936 30.1946 18.4357 30.6686 18.7201 31.0004C19.0044 31.3323 19.3836 31.4745 19.8575 31.4745H23.1276H23.2698Z" fill="#355C35"/>
<path d="M33.9966 2.65457V0.474121H49.9678C54.6596 0.474121 58.1667 1.23254 60.4415 2.79677C62.7164 4.36101 63.8538 6.54146 63.8538 9.43292C63.8538 11.2816 63.2851 12.9406 62.1003 14.3152C60.9154 15.6899 59.1145 16.7327 56.6027 17.4437C58.688 17.9177 60.3467 18.7709 61.4842 19.956C62.6216 21.1884 63.1903 22.7526 63.1903 24.6487V28.2986C63.1903 29.3888 63.3325 30.1472 63.5694 30.5264C63.8064 30.953 64.1855 31.1426 64.6594 31.1426C65.1334 31.1426 65.4651 30.953 65.7495 30.6212C65.9864 30.2894 66.1286 29.7206 66.1286 28.9148V26.1181H68.4508V28.9622C68.4508 30.5738 68.0243 31.8536 67.1238 32.7543C66.2234 33.6549 64.8016 34.0815 62.8111 34.0815C60.9628 34.0815 59.5411 33.6549 58.451 32.7543C57.361 31.901 56.8397 30.3368 56.8397 28.1563V25.2175C56.8397 22.7052 56.2236 20.9988 55.0388 19.956C53.854 18.9605 51.8635 18.4391 49.1147 18.4391H44.5177V29.4362C44.5177 30.1472 44.6599 30.6212 44.9442 30.953C45.2286 31.2848 45.6077 31.427 46.0816 31.427H48.4039V33.6075H33.9492V31.427H36.5084C36.9823 31.427 37.3614 31.2848 37.6458 30.953C37.9301 30.6212 38.0723 30.1472 38.0723 29.4362V4.55061C38.0723 3.8396 37.9301 3.36558 37.6458 3.03378C37.3614 2.70197 36.9823 2.55977 36.5084 2.55977H33.9492L33.9966 2.65457ZM47.9773 2.65457H44.5177V16.3061H48.2143C50.5365 16.3061 52.3848 16.0217 53.7118 15.5003C55.0388 14.9788 55.9866 14.2204 56.5553 13.1776C57.1241 12.1822 57.4084 10.9972 57.4084 9.57513C57.4084 8.10569 57.1241 6.82586 56.5553 5.83044C55.9866 4.78762 55.0388 3.9818 53.6644 3.46039C52.29 2.89157 50.3943 2.65457 47.9773 2.65457Z" fill="#355C35"/>
<path d="M82.2201 15.3107H86.675C87.9072 15.3107 88.8076 15.0736 89.4237 14.5996C90.0398 14.1256 90.3716 13.2724 90.3716 12.04V10.4283H92.599V22.326H90.3716V20.7144C90.3716 19.4819 90.0398 18.6287 89.4237 18.1547C88.8076 17.6807 87.8598 17.4437 86.675 17.4437H82.2201V29.294C82.2201 29.8154 82.3149 30.242 82.5044 30.5738C82.694 30.9056 83.0731 31.1426 83.6418 31.2848C84.2105 31.427 85.0162 31.5218 86.1062 31.5218H88.9498C90.7507 31.5218 92.1725 31.427 93.3099 31.19C94.3999 30.953 95.253 30.5264 95.8691 29.8628C96.4852 29.1992 96.9591 28.2985 97.2435 27.0661C97.5752 25.8337 97.8122 24.2695 97.9543 22.2786H100.371V33.7023H71.6516V31.5218H74.2108C74.6847 31.5218 75.0638 31.3796 75.3482 31.0478C75.6325 30.716 75.7747 30.242 75.7747 29.531V4.64542C75.7747 3.9344 75.6325 3.46039 75.3482 3.12858C75.0638 2.79677 74.6847 2.65457 74.2108 2.65457H71.6516V0.474121H100.371V11.4712H97.9543C97.7648 9.48032 97.5278 7.91609 97.2435 6.73106C96.9117 5.54603 96.4852 4.69282 95.8691 4.0766C95.253 3.50779 94.3999 3.08118 93.3099 2.93898C92.2199 2.74937 90.7507 2.65457 88.9498 2.65457H82.2201V15.3107Z" fill="#355C35"/>
<path d="M135.007 24.2219C135.007 26.355 134.438 28.1088 133.348 29.6257C132.211 31.0951 130.741 32.2327 128.846 32.9911C126.95 33.7496 124.912 34.1288 122.637 34.1288C120.031 34.1288 117.708 33.6548 115.671 32.6593C113.633 31.7113 111.832 30.3841 110.41 28.7724L109.983 33.6548H107.424V22.5155H110.078C110.552 24.3167 111.358 25.9284 112.495 27.3504C113.633 28.7724 115.054 29.8627 116.713 30.6211C118.372 31.4269 120.173 31.8061 122.116 31.8061C123.443 31.8061 124.628 31.6165 125.67 31.2373C126.713 30.8581 127.519 30.2419 128.087 29.4835C128.656 28.725 128.988 27.7296 128.988 26.4972C128.988 25.2648 128.656 24.2219 127.945 23.4161C127.282 22.5629 126.239 21.8519 124.865 21.2357C123.49 20.6195 121.737 20.0507 119.557 19.5292C117.898 19.0552 116.334 18.5812 114.912 18.0124C113.491 17.4436 112.258 16.78 111.216 16.0216C110.173 15.2631 109.32 14.3151 108.751 13.2249C108.135 12.1347 107.851 10.8548 107.851 9.38541C107.851 7.44197 108.372 5.78293 109.367 4.3609C110.41 2.98627 111.784 1.89604 113.538 1.13763C115.291 0.379208 117.282 0 119.462 0C121.737 0 123.775 0.426607 125.623 1.27983C127.424 2.13305 128.988 3.36547 130.267 4.97711L130.694 0.47401H133.253V11.1867H130.552C129.888 8.29519 128.609 6.11474 126.618 4.5979C124.675 3.08107 122.4 2.32265 119.794 2.32265C118.656 2.32265 117.566 2.51226 116.618 2.84406C115.671 3.22327 114.912 3.74468 114.391 4.5031C113.822 5.26152 113.585 6.20954 113.585 7.39457C113.585 8.43739 113.917 9.33801 114.533 10.0964C115.149 10.8548 116.097 11.4711 117.377 11.9925C118.656 12.5139 120.22 13.0827 122.116 13.6041C124.059 14.1255 125.813 14.6469 127.376 15.2631C128.988 15.8794 130.315 16.543 131.5 17.3488C132.637 18.1546 133.537 19.1026 134.154 20.1929C134.77 21.2831 135.101 22.6577 135.101 24.2219H135.007Z" fill="#355C35"/>
<path d="M178.764 33.6548L178.053 29.7679C176.868 31.2373 175.446 32.3275 173.693 33.0385C171.987 33.7496 169.996 34.1288 167.816 34.1288C164.499 34.1288 161.56 33.4178 159.049 31.9957C156.49 30.5737 154.499 28.5828 153.077 26.0232C151.655 23.4635 150.897 20.4773 150.897 17.0644C150.897 13.6041 151.608 10.6178 153.077 8.10558C154.546 5.54593 156.537 3.55508 159.049 2.13305C161.56 0.711014 164.451 0 167.722 0C169.996 0 172.082 0.426608 174.025 1.23243C175.968 2.03824 177.579 3.31807 178.859 5.07191L179.19 0.521411H181.75V11.8977H179.048C178.622 9.95422 177.911 8.24779 176.916 6.82575C175.92 5.40372 174.688 4.3135 173.219 3.55508C171.75 2.79666 170.091 2.41745 168.243 2.41745C166.015 2.41745 164.12 2.98627 162.603 4.07649C161.039 5.16672 159.854 6.82575 159.049 8.9588C158.243 11.1392 157.864 13.7937 157.864 17.017C157.864 20.1929 158.29 22.8947 159.096 25.0752C159.949 27.2556 161.134 28.9147 162.698 30.0523C164.262 31.1899 166.11 31.7587 168.195 31.7587C170.992 31.7587 173.172 31.0477 174.688 29.6731C176.205 28.2984 176.963 26.2128 176.963 23.5109V21.2357C176.963 20.5247 176.821 20.0507 176.536 19.7188C176.252 19.387 175.873 19.2448 175.399 19.2448H170.186V17.0644H185.683V19.2448H183.977C183.503 19.2448 183.124 19.387 182.84 19.7188C182.555 20.0507 182.413 20.5247 182.413 21.2357V33.6548H179.001H178.764Z" fill="#355C35"/>
<path d="M190.123 29.0096L200.36 0.474121H206.615L216.757 28.82C217.089 29.7206 217.373 30.4316 217.705 30.8582C218.037 31.2848 218.511 31.5218 219.174 31.5218H221.117V33.7023H206.236V31.5218H208.701C209.364 31.5218 209.838 31.3322 210.028 30.953C210.265 30.5738 210.265 30.005 209.98 29.1992L207.753 22.8474V22.9896H195.241L193.061 29.3414C192.777 30.242 192.729 30.8108 192.966 31.0952C193.156 31.3796 193.583 31.5218 194.151 31.5218H196.616V33.7023H185.858V31.5218H187.848C188.417 31.5218 188.843 31.3322 189.175 30.953C189.507 30.5738 189.791 29.9102 190.123 29.0096ZM195.952 20.7618H207.089L201.497 4.55061L195.952 20.7618Z" fill="#355C35"/>
<path d="M223.916 2.65457V0.474121H239.888C244.58 0.474121 248.087 1.23254 250.361 2.79677C252.636 4.36101 253.774 6.54146 253.774 9.43292C253.774 11.2816 253.205 12.9406 252.02 14.3152C250.835 15.6899 249.034 16.7327 246.523 17.4437C248.608 17.9177 250.267 18.7709 251.404 19.956C252.541 21.1884 253.11 22.7526 253.11 24.6487V28.2986C253.11 29.3888 253.252 30.1472 253.489 30.5264C253.726 30.953 254.105 31.1426 254.579 31.1426C255.053 31.1426 255.385 30.953 255.669 30.6212C255.906 30.2894 256.049 29.7206 256.049 28.9148V26.1181H258.371V28.9622C258.371 30.5738 257.944 31.8536 257.044 32.7543C256.143 33.6549 254.722 34.0815 252.731 34.0815C250.883 34.0815 249.461 33.6549 248.371 32.7543C247.281 31.901 246.76 30.3368 246.76 28.1563V25.2175C246.76 22.7052 246.144 20.9988 244.959 19.956C243.774 18.9605 241.783 18.4391 239.035 18.4391H234.438V29.4362C234.438 30.1472 234.58 30.6212 234.864 30.953C235.148 31.2848 235.528 31.427 236.002 31.427H238.324V33.6075H223.869V31.427H226.428C226.902 31.427 227.281 31.2848 227.566 30.953C227.85 30.6212 227.992 30.1472 227.992 29.4362V4.55061C227.992 3.8396 227.85 3.36558 227.566 3.03378C227.281 2.70197 226.902 2.55977 226.428 2.55977H223.869L223.916 2.65457ZM237.897 2.65457H234.438V16.3061H238.134C240.456 16.3061 242.305 16.0217 243.632 15.5003C244.959 14.9788 245.907 14.2204 246.475 13.1776C247.044 12.1822 247.328 10.9972 247.328 9.57513C247.328 8.10569 247.044 6.82586 246.475 5.83044C245.907 4.78762 244.959 3.9818 243.584 3.46039C242.21 2.89157 240.314 2.65457 237.897 2.65457Z" fill="#355C35"/>
<path d="M264.984 11.8978H262.567V0.474121H289.817V2.65457L269.249 31.4744H278.49C280.291 31.4744 281.761 31.3796 282.898 31.1426C284.035 30.953 284.888 30.479 285.552 29.8628C286.168 29.1992 286.642 28.2511 286.974 26.9239C287.305 25.6441 287.542 23.8903 287.779 21.7572H290.196V33.6549H261.714V31.4744L282.282 2.65457H274.225C272.424 2.65457 270.955 2.74937 269.818 2.93898C268.68 3.12858 267.827 3.55519 267.164 4.1714C266.548 4.78762 266.074 5.73564 265.742 6.92067C265.41 8.15309 265.173 9.81213 264.984 11.8978Z" fill="#355C35"/>
<path d="M297.206 29.0096L307.442 0.474121H313.698L323.84 28.82C324.172 29.7206 324.456 30.4316 324.788 30.8582C325.12 31.2848 325.594 31.5218 326.257 31.5218H328.2V33.7023H313.319V31.5218H315.784C316.447 31.5218 316.921 31.3322 317.11 30.953C317.347 30.5738 317.347 30.005 317.063 29.1992L314.836 22.8474V22.9896H302.324L300.144 29.3414C299.86 30.242 299.812 30.8108 300.049 31.0952C300.239 31.3796 300.665 31.5218 301.234 31.5218H303.698V33.7023H292.94V31.5218H294.931C295.5 31.5218 295.926 31.3322 296.258 30.953C296.59 30.5738 296.874 29.9102 297.206 29.0096ZM303.035 20.7618H314.172L308.58 4.55061L303.035 20.7618Z" fill="#355C35"/>
<path d="M358.013 24.2219C358.013 26.355 357.444 28.1088 356.354 29.6257C355.217 31.0951 353.748 32.2327 351.852 32.9911C349.956 33.7496 347.918 34.1288 345.643 34.1288C343.037 34.1288 340.715 33.6548 338.677 32.6593C336.639 31.7113 334.838 30.3841 333.416 28.7724L332.99 33.6548H330.43V22.5155H333.084C333.558 24.3167 334.364 25.9284 335.501 27.3504C336.639 28.7724 338.061 29.8627 339.719 30.6211C341.378 31.4269 343.179 31.8061 345.122 31.8061C346.449 31.8061 347.634 31.6165 348.677 31.2373C349.719 30.8581 350.525 30.2419 351.094 29.4835C351.662 28.725 351.994 27.7296 351.994 26.4972C351.994 25.2648 351.662 24.2219 350.951 23.4161C350.288 22.5629 349.245 21.8519 347.871 21.2357C346.496 20.6195 344.743 20.0507 342.563 19.5292C340.904 19.0552 339.34 18.5812 337.918 18.0124C336.497 17.4436 335.264 16.78 334.222 16.0216C333.179 15.2631 332.326 14.3151 331.757 13.2249C331.141 12.1347 330.857 10.8548 330.857 9.38541C330.857 7.44197 331.378 5.78293 332.374 4.3609C333.416 2.98627 334.791 1.89604 336.544 1.13763C338.298 0.379208 340.288 0 342.468 0C344.743 0 346.781 0.426607 348.629 1.27983C350.43 2.13305 351.994 3.36547 353.274 4.97711L353.7 0.47401H356.259V11.1867H353.558C352.894 8.29519 351.615 6.11474 349.624 4.5979C347.681 3.08107 345.406 2.32265 342.8 2.32265C341.662 2.32265 340.572 2.51226 339.625 2.84406C338.677 3.22327 337.918 3.74468 337.397 4.5031C336.828 5.26152 336.591 6.20954 336.591 7.39457C336.591 8.43739 336.923 9.33801 337.539 10.0964C338.155 10.8548 339.103 11.4711 340.383 11.9925C341.662 12.5139 343.226 13.0827 345.122 13.6041C347.065 14.1255 348.819 14.6469 350.383 15.2631C351.994 15.8794 353.321 16.543 354.506 17.3488C355.643 18.1546 356.544 19.1026 357.16 20.1929C357.776 21.2831 358.108 22.6577 358.108 24.2219H358.013Z" fill="#355C35"/>
</svg>
