<svg width="46" height="46" viewBox="0 0 46 46" fill="none" xmlns="http://www.w3.org/2000/svg">
<path d="M13.0142 38.1107L13.812 38.5343C16.6268 40.2837 19.921 41.1838 23.2152 41.1838C33.4146 41.1838 41.7015 32.9156 41.7015 22.7394C41.7015 12.563 33.4146 4.29293 23.2152 4.29293C13.0142 4.29293 4.72735 12.563 4.72735 22.7394C4.72735 26.0773 5.68441 29.417 7.43775 32.2802L7.91547 33.0745L6.05603 39.9641L13.0142 38.1107ZM31.6614 25.9185C30.7572 25.3358 29.5366 24.7005 28.4202 25.1771C27.5709 25.4948 27.0402 26.8205 26.5078 27.5088C26.1892 27.8796 25.8708 27.9325 25.4461 27.7206C22.2582 26.4497 19.8149 24.3297 18.0616 21.4137C17.7432 20.99 17.7962 20.6194 18.1679 20.1938C18.6986 19.5585 19.3903 18.87 19.4964 18.0209C19.6557 17.1736 19.2843 16.2187 18.9108 15.4773C18.4863 14.5241 17.9555 13.1455 17.0001 12.6159C16.1491 12.1375 14.9797 12.4041 14.1836 13.0396C12.8549 14.1516 12.1649 15.848 12.2181 17.5443C12.2181 18.0738 12.2711 18.5523 12.3772 19.0289C12.6426 20.1409 13.1752 21.2018 13.759 22.2099C14.1836 22.9511 14.7144 23.6925 15.1938 24.3828C16.8922 26.6616 19.017 28.6757 21.4621 30.2131C22.6827 30.9545 24.0113 31.5901 25.3931 32.0665C26.9341 32.545 28.261 33.0745 29.9081 32.7568C31.6614 32.4392 33.3616 31.3782 34.0514 29.6817C34.2637 29.2053 34.37 28.6757 34.2637 28.1462C33.9984 27.0853 32.5636 26.3968 31.6614 25.9185ZM0 46.0082L3.29423 33.7099C1.43479 30.3721 0.424698 26.5557 0.424698 22.7394C0.424698 10.2293 10.6771 0 23.2152 0C35.7517 0 46.0041 10.2293 46.0041 22.7394C46.0041 35.2474 35.7517 45.4767 23.2152 45.4767C19.4433 45.4767 15.7244 44.5235 12.3772 42.7214L0 46.0082Z" fill="#355C35"/>
</svg>
